<svg width="2" height="11" viewBox="0 0 2 11" fill="none" xmlns="http://www.w3.org/2000/svg">
<path id="!" d="M1.82001 0.52832L1.69001 7.23393H0.305071L0.175076 0.52832H1.82001ZM1.00004 10.0283C0.723386 10.0283 0.48673 9.93946 0.290071 9.76175C0.0934127 9.58097 -0.00324989 9.36343 8.33314e-05 9.10911C-0.00324989 8.85786 0.0934127 8.64338 0.290071 8.46567C0.48673 8.28489 0.723386 8.1945 1.00004 8.1945C1.27003 8.1945 1.50335 8.28489 1.70001 8.46567C1.89667 8.64338 1.99667 8.85786 2 9.10911C1.99667 9.27763 1.94834 9.43237 1.85501 9.57331C1.76501 9.71119 1.64501 9.8215 1.49502 9.90423C1.34503 9.98696 1.18003 10.0283 1.00004 10.0283Z" fill="#3485FF"/>
</svg>
