<svg width="24" height="24" viewBox="0 0 24 24" fill="none" xmlns="http://www.w3.org/2000/svg">
<g id="car-sideview">
<path id="Subtract" fill-rule="evenodd" clip-rule="evenodd" d="M3 15.325V13H4.9V14.375H5.641C5.90812 14.0811 6.23372 13.8463 6.59691 13.6856C6.96009 13.5249 7.35286 13.4419 7.75 13.4419C8.14714 13.4419 8.53991 13.5249 8.90309 13.6856C9.26628 13.8463 9.59188 14.0811 9.859 14.375H15.141C15.4081 14.0811 15.7337 13.8463 16.0969 13.6856C16.4601 13.5249 16.8529 13.4419 17.25 13.4419C17.6471 13.4419 18.0399 13.5249 18.4031 13.6856C18.7663 13.8463 19.0919 14.0811 19.359 14.375H20.1V12.475C20.1 12.223 19.9999 11.9814 19.8218 11.8032C19.6436 11.6251 19.402 11.525 19.15 11.525H12V7V4.875H15.0175C15.5856 4.87559 16.1405 5.04593 16.6111 5.36416C17.0817 5.68239 17.4464 6.13399 17.6585 6.661L18.846 9.625H19.15C19.9059 9.625 20.6308 9.92527 21.1653 10.4597C21.6997 10.9942 22 11.7191 22 12.475V15.325C22 15.577 21.8999 15.8186 21.7218 15.9968C21.5436 16.1749 21.302 16.275 21.05 16.275H20.1C20.1 17.0309 19.7997 17.7558 19.2653 18.2903C18.7308 18.8247 18.0059 19.125 17.25 19.125C16.4941 19.125 15.7692 18.8247 15.2347 18.2903C14.7003 17.7558 14.4 17.0309 14.4 16.275H10.6C10.6 17.0309 10.2997 17.7558 9.76525 18.2903C9.23078 18.8247 8.50587 19.125 7.75 19.125C6.99413 19.125 6.26922 18.8247 5.73475 18.2903C5.20027 17.7558 4.9 17.0309 4.9 16.275H3.95C3.69804 16.275 3.45641 16.1749 3.27825 15.9968C3.10009 15.8186 3 15.577 3 15.325ZM13.45 6.775H15.0175C15.2061 6.77671 15.39 6.83454 15.5457 6.94113C15.7013 7.04772 15.8217 7.19823 15.8915 7.3735L16.794 9.625H13.45V6.775ZM7.75 17.225C7.56211 17.225 7.37844 17.1693 7.22221 17.0649C7.06598 16.9605 6.94422 16.8121 6.87231 16.6385C6.80041 16.465 6.7816 16.2739 6.81825 16.0897C6.85491 15.9054 6.94539 15.7361 7.07825 15.6032C7.21111 15.4704 7.38038 15.3799 7.56466 15.3433C7.74895 15.3066 7.93996 15.3254 8.11355 15.3973C8.28714 15.4692 8.43551 15.591 8.5399 15.7472C8.64428 15.9034 8.7 16.0871 8.7 16.275C8.7 16.527 8.59991 16.7686 8.42175 16.9468C8.24359 17.1249 8.00196 17.225 7.75 17.225ZM17.25 17.225C17.0621 17.225 16.8784 17.1693 16.7222 17.0649C16.566 16.9605 16.4442 16.8121 16.3723 16.6385C16.3004 16.465 16.2816 16.2739 16.3183 16.0897C16.3549 15.9054 16.4454 15.7361 16.5782 15.6032C16.7111 15.4704 16.8804 15.3799 17.0647 15.3433C17.2489 15.3066 17.44 15.3254 17.6135 15.3973C17.7871 15.4692 17.9355 15.591 18.0399 15.7472C18.1443 15.9034 18.2 16.0871 18.2 16.275C18.2 16.527 18.0999 16.7686 17.9218 16.9468C17.7436 17.1249 17.502 17.225 17.25 17.225Z" fill="#3485FF"/>
<rect id="Rectangle 824" x="2" y="8.5" width="7" height="2" rx="1" fill="#3485FF"/>
<rect id="Rectangle 825" x="3" y="5" width="7" height="2" rx="1" fill="#3485FF"/>
</g>
</svg>
