<svg width="24" height="24" viewBox="0 0 24 24" fill="none" xmlns="http://www.w3.org/2000/svg">
<g id="notes">
<path id="Vector" d="M15.5556 13.8H8.44444C8.2087 13.8 7.9826 13.8948 7.81591 14.0636C7.64921 14.2324 7.55556 14.4613 7.55556 14.7C7.55556 14.9387 7.64921 15.1676 7.81591 15.3364C7.9826 15.5052 8.2087 15.6 8.44444 15.6H15.5556C15.7913 15.6 16.0174 15.5052 16.1841 15.3364C16.3508 15.1676 16.4444 14.9387 16.4444 14.7C16.4444 14.4613 16.3508 14.2324 16.1841 14.0636C16.0174 13.8948 15.7913 13.8 15.5556 13.8ZM15.5556 10.2H10.2222C9.98647 10.2 9.76038 10.2948 9.59368 10.4636C9.42698 10.6324 9.33333 10.8613 9.33333 11.1C9.33333 11.3387 9.42698 11.5676 9.59368 11.7364C9.76038 11.9052 9.98647 12 10.2222 12H15.5556C15.7913 12 16.0174 11.9052 16.1841 11.7364C16.3508 11.5676 16.4444 11.3387 16.4444 11.1C16.4444 10.8613 16.3508 10.6324 16.1841 10.4636C16.0174 10.2948 15.7913 10.2 15.5556 10.2ZM19.1111 4.8H16.4444V3.9C16.4444 3.66131 16.3508 3.43239 16.1841 3.2636C16.0174 3.09482 15.7913 3 15.5556 3C15.3198 3 15.0937 3.09482 14.927 3.2636C14.7603 3.43239 14.6667 3.66131 14.6667 3.9V4.8H12.8889V3.9C12.8889 3.66131 12.7952 3.43239 12.6285 3.2636C12.4618 3.09482 12.2357 3 12 3C11.7643 3 11.5382 3.09482 11.3715 3.2636C11.2048 3.43239 11.1111 3.66131 11.1111 3.9V4.8H9.33333V3.9C9.33333 3.66131 9.23968 3.43239 9.07298 3.2636C8.90628 3.09482 8.68019 3 8.44444 3C8.2087 3 7.9826 3.09482 7.81591 3.2636C7.64921 3.43239 7.55556 3.66131 7.55556 3.9V4.8H4.88889C4.65314 4.8 4.42705 4.89482 4.26035 5.0636C4.09365 5.23239 4 5.46131 4 5.7V18.3C4 19.0161 4.28095 19.7028 4.78105 20.2092C5.28115 20.7155 5.95942 21 6.66667 21H17.3333C18.0406 21 18.7189 20.7155 19.219 20.2092C19.719 19.7028 20 19.0161 20 18.3V5.7C20 5.46131 19.9064 5.23239 19.7397 5.0636C19.573 4.89482 19.3469 4.8 19.1111 4.8ZM18.2222 18.3C18.2222 18.5387 18.1286 18.7676 17.9619 18.9364C17.7952 19.1052 17.5691 19.2 17.3333 19.2H6.66667C6.43092 19.2 6.20483 19.1052 6.03813 18.9364C5.87143 18.7676 5.77778 18.5387 5.77778 18.3V6.6H7.55556V7.5C7.55556 7.73869 7.64921 7.96761 7.81591 8.1364C7.9826 8.30518 8.2087 8.4 8.44444 8.4C8.68019 8.4 8.90628 8.30518 9.07298 8.1364C9.23968 7.96761 9.33333 7.73869 9.33333 7.5V6.6H11.1111V7.5C11.1111 7.73869 11.2048 7.96761 11.3715 8.1364C11.5382 8.30518 11.7643 8.4 12 8.4C12.2357 8.4 12.4618 8.30518 12.6285 8.1364C12.7952 7.96761 12.8889 7.73869 12.8889 7.5V6.6H14.6667V7.5C14.6667 7.73869 14.7603 7.96761 14.927 8.1364C15.0937 8.30518 15.3198 8.4 15.5556 8.4C15.7913 8.4 16.0174 8.30518 16.1841 8.1364C16.3508 7.96761 16.4444 7.73869 16.4444 7.5V6.6H18.2222V18.3Z" fill="#3485FF"/>
</g>
</svg>
