<svg width="55" height="30" viewBox="0 0 55 30" fill="none" xmlns="http://www.w3.org/2000/svg">
<g id="Component 9">
<rect width="55" height="30" rx="15" fill="#0E254B" fill-opacity="0.05"/>
<g id="Group 5145">
<path id="Vector" fill-rule="evenodd" clip-rule="evenodd" d="M18.3235 14.4113C23.4914 12.1598 26.9375 10.6754 28.6617 9.95823C33.5848 7.91054 34.6078 7.55484 35.2745 7.54309C35.4212 7.54051 35.7491 7.57685 35.9615 7.7492C36.1408 7.89472 36.1902 8.09131 36.2138 8.22928C36.2374 8.36725 36.2668 8.68156 36.2434 8.92715C35.9766 11.7303 34.8223 18.5327 34.235 21.6722C33.9865 23.0007 33.4972 23.4461 33.0235 23.4897C31.994 23.5844 31.2123 22.8094 30.2152 22.1558C28.655 21.133 27.7735 20.4963 26.259 19.4983C24.5088 18.3449 25.6434 17.711 26.6409 16.675C26.9019 16.4039 31.4377 12.2782 31.5255 11.9039C31.5365 11.8571 31.5467 11.6826 31.4431 11.5905C31.3394 11.4984 31.1864 11.5299 31.076 11.5549C30.9195 11.5904 28.427 13.2379 23.5985 16.4973C22.891 16.9831 22.2502 17.2198 21.676 17.2074C21.0431 17.1937 19.8255 16.8495 18.9204 16.5553C17.8102 16.1944 16.9278 16.0036 17.0047 15.3908C17.0447 15.0715 17.4843 14.7451 18.3235 14.4113Z" fill="#697890"/>
</g>
</g>
</svg>
