<svg width="63" height="6" viewBox="0 0 63 6" fill="none" xmlns="http://www.w3.org/2000/svg">
<path id="Vector" d="M61.3352 5.8811C59.4795 5.8811 58.1524 5.04153 56.9838 4.29951C56.0294 3.69515 55.206 3.17279 54.2127 3.17279C53.2195 3.17279 52.3959 3.69515 51.4416 4.29951C50.2731 5.04139 48.946 5.8811 47.0902 5.8811C45.2344 5.8811 43.9101 5.04153 42.7388 4.3008C41.7873 3.69644 40.9637 3.17543 39.9677 3.17543C39.1063 3.29139 38.2867 3.60203 37.5777 4.08129C35.744 5.21721 33.6117 5.84082 31.4234 5.8811H31.4179C29.2297 5.84039 27.0974 5.21682 25.2636 4.08129C24.5546 3.60202 23.735 3.29138 22.8736 3.17543H22.8708C21.8776 3.17543 21.054 3.69678 20.1025 4.3008C18.9312 5.04139 17.6069 5.8811 15.7511 5.8811C13.8953 5.8811 12.5683 5.04153 11.3997 4.29951C10.4452 3.69515 9.62181 3.17279 8.62857 3.17279C7.63534 3.17279 6.81176 3.69515 5.85748 4.29951C4.68896 5.04139 3.36182 5.8811 1.50605 5.8811C1.12825 5.8811 0.765917 5.73843 0.498771 5.48448C0.231624 5.23052 0.081543 4.88609 0.081543 4.52694C0.081543 4.1678 0.231624 3.82336 0.498771 3.56941C0.765917 3.31545 1.12825 3.17279 1.50605 3.17279C2.49928 3.17279 3.32286 2.65042 4.27714 2.04606C5.44573 1.30418 6.7728 0.464468 8.62857 0.464468C10.4843 0.464468 11.8115 1.30405 12.98 2.04606C13.9344 2.65042 14.7579 3.17279 15.7511 3.17279C16.7443 3.17279 17.5679 2.65042 18.5222 2.04741C19.6908 1.30682 21.0178 0.467108 22.8708 0.467108H22.8736C24.2324 0.559121 25.5411 0.992684 26.6658 1.72343C28.0748 2.62205 29.7219 3.12442 31.4179 3.17279H31.4234C33.1194 3.12442 34.7665 2.62205 36.1755 1.72343C37.3002 0.992684 38.6089 0.559121 39.9677 0.467108H39.9705C41.8234 0.467108 43.1506 1.30669 44.3191 2.04741C45.2735 2.65042 46.097 3.17279 47.0902 3.17279C48.0834 3.17279 48.907 2.65042 49.8613 2.04606C51.0299 1.30418 52.357 0.464468 54.2127 0.464468C56.0685 0.464468 57.3956 1.30405 58.5642 2.04606C59.5186 2.65042 60.342 3.17279 61.3352 3.17279C61.713 3.17279 62.0754 3.31545 62.3425 3.56941C62.6097 3.82336 62.7598 4.1678 62.7598 4.52694C62.7598 4.88609 62.6097 5.23052 62.3425 5.48448C62.0754 5.73843 61.713 5.8811 61.3352 5.8811V5.8811Z" fill="white"/>
</svg>
