<svg width="36" height="31" viewBox="0 0 36 31" fill="none" xmlns="http://www.w3.org/2000/svg">
<g id="Telegram">
<rect y="0.5" width="36" height="30" rx="15" fill="#F4F6F9"/>
<g id="Group 5144">
<path id="Shape" fill-rule="evenodd" clip-rule="evenodd" d="M18.7456 22.4457C18.7456 22.4457 19.1646 22.4 19.3792 22.1737C19.5756 21.9664 19.5688 21.5752 19.5688 21.5752C19.5688 21.5752 19.5427 19.7485 20.4067 19.4788C21.2583 19.2136 22.3517 21.2453 23.5121 22.0266C24.3886 22.6173 25.0539 22.488 25.0539 22.488L28.1548 22.4457C28.1548 22.4457 29.7761 22.3476 29.0074 21.096C28.9439 20.9934 28.559 20.1698 26.7026 18.478C24.7576 16.707 25.0187 16.9935 27.36 13.9296C28.786 12.0639 29.356 10.9249 29.1778 10.4379C29.0086 9.972 27.9595 10.0957 27.9595 10.0957L24.4692 10.1169C24.4692 10.1169 24.2103 10.0823 24.0185 10.1949C23.8311 10.3052 23.7096 10.5627 23.7096 10.5627C23.7096 10.5627 23.1578 12.006 22.4209 13.2342C20.8666 15.8243 20.2455 15.9614 19.9911 15.8009C19.3996 15.4253 19.5472 14.2941 19.5472 13.4905C19.5472 10.9795 19.9355 9.93299 18.7922 9.66216C18.4129 9.57189 18.1336 9.51282 17.1628 9.50279C15.9173 9.49053 14.8636 9.50725 14.2664 9.79368C13.869 9.98426 13.5624 10.41 13.7498 10.4345C13.9803 10.4646 14.5026 10.5727 14.7796 10.9427C15.1373 11.4209 15.1248 12.493 15.1248 12.493C15.1248 12.493 15.3303 15.4487 14.6445 15.8154C14.1744 16.0673 13.5295 15.5535 12.1432 13.203C11.4336 11.9993 10.8976 10.6686 10.8976 10.6686C10.8976 10.6686 10.7943 10.42 10.6092 10.2863C10.3856 10.1247 10.0733 10.0745 10.0733 10.0745L6.7568 10.0957C6.7568 10.0957 6.25835 10.1091 6.07555 10.322C5.91318 10.5103 6.06306 10.9015 6.06306 10.9015C6.06306 10.9015 8.65974 16.8653 11.6005 19.8711C14.2971 22.6262 17.3581 22.4457 17.3581 22.4457H18.7456Z" fill="#697890"/>
</g>
</g>
</svg>
